<svg xmlns="http://www.w3.org/2000/svg" width="400" height="80" viewBox="0 0 400 80">
  
  <rect x="16" y="15" width="50" height="50" rx="11" ry="11" fill="#FF6B35"/>
  <path fill="#ffffff" d="M32.89 49.31L32.89 49.31Q30.53 49.31 28.76 48.61Q27.00 47.91 26.02 46.45Q25.05 44.98 25.03 42.70L25.03 42.70L29.72 42.70Q29.78 43.96 30.59 44.61Q31.39 45.26 32.82 45.26L32.82 45.26Q34.01 45.26 34.62 44.83Q35.24 44.39 35.24 43.72L35.24 43.72Q35.24 43.11 34.63 42.70Q34.02 42.28 32.50 41.97L32.50 41.97L30.67 41.57Q28.27 41.06 26.88 39.82Q25.50 38.58 25.50 36.45L25.50 36.45Q25.50 34.71 26.44 33.41Q27.38 32.11 29.03 31.39Q30.69 30.66 32.85 30.66L32.85 30.66Q35.06 30.66 36.66 31.40Q38.27 32.14 39.14 33.48Q40.01 34.81 40.02 36.59L40.02 36.59L35.29 36.59Q35.23 35.70 34.63 35.21Q34.04 34.71 32.85 34.71L32.85 34.71Q31.70 34.71 31.17 35.10Q30.65 35.50 30.65 36.11L30.65 36.11Q30.65 36.75 31.22 37.16Q31.80 37.56 33.09 37.84L33.09 37.84L34.58 38.16Q37.59 38.79 38.93 40.22Q40.27 41.65 40.27 43.72L40.27 43.72Q40.27 46.42 38.31 47.87Q36.35 49.31 32.89 49.31ZM50.72 49.09L42.15 49.09L42.15 30.91L50.03 30.91Q53.15 30.91 54.76 32.14Q56.38 33.37 56.38 35.45L56.38 35.45Q56.38 36.96 55.42 38.04Q54.45 39.12 52.87 39.43L52.87 39.43L52.87 39.62Q54.04 39.66 55.00 40.20Q55.95 40.74 56.52 41.70Q57.09 42.66 57.09 43.94L57.09 43.94Q57.09 45.43 56.32 46.60Q55.55 47.76 54.12 48.43Q52.69 49.09 50.72 49.09L50.72 49.09ZM47.08 41.31L47.08 45.16L49.40 45.16Q51.89 45.16 51.89 43.31L51.89 43.31Q51.89 42.34 51.24 41.82Q50.59 41.31 49.47 41.31L49.47 41.31L47.08 41.31ZM47.08 34.79L47.08 38.25L49.11 38.25Q50.08 38.25 50.69 37.81Q51.30 37.36 51.30 36.52L51.30 36.52Q51.30 35.69 50.70 35.24Q50.09 34.79 49.18 34.79L49.18 34.79L47.08 34.79Z"/>
  <path fill="#0F172A" d="M92.30 53.86L92.30 53.86Q87.44 53.86 84.54 51.63Q81.64 49.39 81.54 45.11L81.54 45.11L86.90 45.11Q87.05 47.15 88.54 48.18Q90.03 49.20 92.25 49.20L92.25 49.20Q94.45 49.20 95.80 48.25Q97.15 47.30 97.15 45.76L97.15 45.76Q97.15 44.37 95.93 43.63Q94.71 42.89 92.50 42.35L92.50 42.35L89.54 41.61Q86.12 40.78 84.19 39.00Q82.26 37.22 82.26 34.29L82.26 34.29Q82.26 31.85 83.57 30.03Q84.88 28.20 87.16 27.19Q89.45 26.18 92.38 26.18L92.38 26.18Q95.36 26.18 97.58 27.20Q99.80 28.22 101.05 30.04Q102.29 31.85 102.33 34.22L102.33 34.22L97.00 34.22Q96.86 32.59 95.62 31.71Q94.38 30.82 92.32 30.82L92.32 30.82Q90.21 30.82 89.06 31.70Q87.91 32.57 87.91 33.93L87.91 33.93Q87.91 35.43 89.20 36.17Q90.50 36.91 92.21 37.33L92.21 37.33L94.65 37.92Q96.91 38.45 98.73 39.43Q100.56 40.42 101.63 41.98Q102.69 43.54 102.69 45.80L102.69 45.80Q102.69 49.47 99.95 51.66Q97.22 53.86 92.30 53.86ZM115.57 53.86L115.57 53.86Q112.54 53.86 110.32 52.55Q108.09 51.24 106.89 48.90Q105.69 46.56 105.69 43.45L105.69 43.45Q105.69 40.33 106.89 37.98Q108.09 35.63 110.32 34.32Q112.54 33.01 115.57 33.01L115.57 33.01Q118.61 33.01 120.83 34.32Q123.05 35.63 124.25 37.98Q125.46 40.33 125.46 43.45L125.46 43.45Q125.46 46.56 124.25 48.90Q123.05 51.24 120.83 52.55Q118.61 53.86 115.57 53.86ZM115.57 49.59L115.57 49.59Q117.74 49.59 118.84 47.84Q119.94 46.09 119.94 43.43L119.94 43.43Q119.94 40.76 118.84 39.02Q117.74 37.27 115.57 37.27L115.57 37.27Q113.40 37.27 112.31 39.02Q111.22 40.76 111.22 43.43L111.22 43.43Q111.22 46.09 112.31 47.84Q113.40 49.59 115.57 49.59ZM138.26 53.86L138.26 53.86Q135.21 53.86 133.00 52.55Q130.78 51.24 129.58 48.90Q128.38 46.56 128.38 43.45L128.38 43.45Q128.38 40.33 129.58 37.98Q130.78 35.63 133.00 34.32Q135.21 33.01 138.26 33.01L138.26 33.01Q141.86 33.01 144.26 34.81Q146.67 36.60 147.24 39.73L147.24 39.73L142.20 40.67Q141.86 39.10 140.87 38.18Q139.89 37.27 138.32 37.27L138.32 37.27Q136.15 37.27 135.03 38.98Q133.91 40.69 133.91 43.43L133.91 43.43Q133.91 46.14 135.03 47.87Q136.15 49.59 138.32 49.59L138.32 49.59Q139.89 49.59 140.90 48.64Q141.91 47.70 142.24 46.07L142.24 46.07L147.28 46.99Q146.70 50.19 144.30 52.02Q141.90 53.86 138.26 53.86ZM156.42 53.46L151.00 53.46L151.00 33.26L156.42 33.26L156.42 53.46ZM153.71 30.62L153.71 30.62Q152.48 30.62 151.62 29.81Q150.75 29.00 150.75 27.84L150.75 27.84Q150.75 26.69 151.62 25.87Q152.48 25.06 153.71 25.06L153.71 25.06Q154.94 25.06 155.82 25.87Q156.69 26.69 156.69 27.84L156.69 27.84Q156.69 29.00 155.82 29.81Q154.94 30.62 153.71 30.62ZM166.66 53.86L166.66 53.86Q163.77 53.86 161.86 52.33Q159.94 50.80 159.94 47.80L159.94 47.80Q159.94 45.55 161.03 44.26Q162.11 42.98 163.85 42.38Q165.58 41.79 167.57 41.61L167.57 41.61Q170.17 41.35 171.32 41.07Q172.46 40.79 172.46 39.80L172.46 39.80L172.46 39.71Q172.46 38.43 171.64 37.72Q170.82 37.02 169.30 37.02L169.30 37.02Q167.73 37.02 166.77 37.70Q165.82 38.37 165.49 39.35L165.49 39.35L160.52 38.52Q161.30 35.90 163.62 34.45Q165.94 33.01 169.32 33.01L169.32 33.01Q171.49 33.01 173.45 33.69Q175.41 34.38 176.65 35.89Q177.88 37.40 177.88 39.86L177.88 39.86L177.88 53.46L172.75 53.46L172.75 50.66L172.57 50.66Q171.83 52.07 170.37 52.96Q168.90 53.86 166.66 53.86ZM168.20 50.04L168.20 50.04Q170.10 50.04 171.30 48.94Q172.50 47.84 172.50 46.23L172.50 46.23L172.50 44.05Q172.17 44.28 171.44 44.45Q170.71 44.63 169.90 44.76Q169.09 44.90 168.49 44.97L168.49 44.97Q166.99 45.19 166.07 45.82Q165.15 46.45 165.15 47.66L165.15 47.66Q165.15 48.83 166.01 49.44Q166.86 50.04 168.20 50.04ZM182.51 26.54L187.93 26.54L187.93 53.46L182.51 53.46L182.51 26.54Z"/>
  <path fill="#FF6B35" d="M204.03 53.46L192.66 53.46L192.66 26.54L203.34 26.54Q207.77 26.54 210.00 28.49Q212.23 30.44 212.23 33.46L212.23 33.46Q212.23 35.84 210.85 37.31Q209.46 38.77 207.39 39.24L207.39 39.24L207.39 39.51Q208.90 39.58 210.25 40.38Q211.60 41.17 212.44 42.61Q213.28 44.05 213.28 46.03L213.28 46.03Q213.28 48.17 212.23 49.85Q211.18 51.53 209.12 52.49Q207.06 53.46 204.03 53.46L204.03 53.46ZM198.17 41.63L198.17 48.92L202.94 48.92Q205.38 48.92 206.49 47.99Q207.60 47.05 207.60 45.51L207.60 45.51Q207.60 43.83 206.38 42.73Q205.16 41.63 203.09 41.63L203.09 41.63L198.17 41.63ZM198.17 31.04L198.17 37.85L202.53 37.85Q204.30 37.85 205.47 36.91Q206.65 35.97 206.65 34.35L206.65 34.35Q206.65 32.88 205.61 31.96Q204.57 31.04 202.63 31.04L202.63 31.04L198.17 31.04ZM222.44 41.77L222.44 41.77L222.44 53.46L217.02 53.46L217.02 26.54L222.33 26.54L222.33 37.13Q223.21 35.16 224.73 34.08Q226.25 33.01 228.49 33.01L228.49 33.01Q231.63 33.01 233.54 35.03Q235.44 37.06 235.44 40.61L235.44 40.61L235.44 53.46L230.01 53.46L230.01 41.55Q230.01 39.67 229.04 38.61Q228.07 37.54 226.36 37.54L226.36 37.54Q224.62 37.54 223.53 38.65Q222.44 39.77 222.44 41.77ZM245.69 53.86L245.69 53.86Q242.80 53.86 240.88 52.33Q238.97 50.80 238.97 47.80L238.97 47.80Q238.97 45.55 240.05 44.26Q241.13 42.98 242.87 42.38Q244.60 41.79 246.59 41.61L246.59 41.61Q249.19 41.35 250.34 41.07Q251.49 40.79 251.49 39.80L251.49 39.80L251.49 39.71Q251.49 38.43 250.66 37.72Q249.84 37.02 248.32 37.02L248.32 37.02Q246.75 37.02 245.80 37.70Q244.84 38.37 244.51 39.35L244.51 39.35L239.54 38.52Q240.32 35.90 242.64 34.45Q244.96 33.01 248.34 33.01L248.34 33.01Q250.51 33.01 252.47 33.69Q254.43 34.38 255.67 35.89Q256.91 37.40 256.91 39.86L256.91 39.86L256.91 53.46L251.78 53.46L251.78 50.66L251.59 50.66Q250.85 52.07 249.39 52.96Q247.93 53.86 245.69 53.86ZM247.22 50.04L247.22 50.04Q249.12 50.04 250.32 48.94Q251.52 47.84 251.52 46.23L251.52 46.23L251.52 44.05Q251.20 44.28 250.47 44.45Q249.73 44.63 248.92 44.76Q248.11 44.90 247.51 44.97L247.51 44.97Q246.01 45.19 245.09 45.82Q244.17 46.45 244.17 47.66L244.17 47.66Q244.17 48.83 245.03 49.44Q245.89 50.04 247.22 50.04ZM266.95 53.46L261.53 53.46L261.53 33.26L266.77 33.26L266.77 36.78L266.99 36.78Q267.55 34.92 268.86 33.96Q270.17 32.99 271.87 32.99L271.87 32.99Q272.79 32.99 273.62 33.17L273.62 33.17L273.62 38.01Q273.26 37.90 272.56 37.82Q271.87 37.74 271.27 37.74L271.27 37.74Q269.39 37.74 268.17 38.92Q266.95 40.09 266.95 41.97L266.95 41.97L266.95 53.46ZM282.24 53.86L282.24 53.86Q279.34 53.86 277.43 52.33Q275.51 50.80 275.51 47.80L275.51 47.80Q275.51 45.55 276.60 44.26Q277.68 42.98 279.42 42.38Q281.15 41.79 283.14 41.61L283.14 41.61Q285.74 41.35 286.89 41.07Q288.03 40.79 288.03 39.80L288.03 39.80L288.03 39.71Q288.03 38.43 287.21 37.72Q286.39 37.02 284.87 37.02L284.87 37.02Q283.30 37.02 282.34 37.70Q281.39 38.37 281.06 39.35L281.06 39.35L276.09 38.52Q276.87 35.90 279.19 34.45Q281.51 33.01 284.89 33.01L284.89 33.01Q287.06 33.01 289.02 33.69Q290.98 34.38 292.22 35.89Q293.45 37.40 293.45 39.86L293.45 39.86L293.45 53.46L288.32 53.46L288.32 50.66L288.14 50.66Q287.40 52.07 285.94 52.96Q284.48 53.86 282.24 53.86ZM283.77 50.04L283.77 50.04Q285.67 50.04 286.87 48.94Q288.07 47.84 288.07 46.23L288.07 46.23L288.07 44.05Q287.75 44.28 287.01 44.45Q286.28 44.63 285.47 44.76Q284.66 44.90 284.06 44.97L284.06 44.97Q282.56 45.19 281.64 45.82Q280.72 46.45 280.72 47.66L280.72 47.66Q280.72 48.83 281.58 49.44Q282.43 50.04 283.77 50.04ZM304.33 33.26L308.11 33.26L308.11 37.40L304.33 37.40L304.33 47.55Q304.33 49.43 306.17 49.43L306.17 49.43Q306.48 49.43 307.03 49.35Q307.58 49.27 307.89 49.20L307.89 49.20L308.67 53.26Q307.76 53.53 306.87 53.64Q305.97 53.75 305.16 53.75L305.16 53.75Q302.13 53.75 300.52 52.28Q298.91 50.80 298.91 48.02L298.91 48.02L298.91 37.40L296.13 37.40L296.13 33.26L298.91 33.26L298.91 28.46L304.33 28.46L304.33 33.26Z"/>
</svg>